<?xml version="1.0" encoding="utf-8"?>
<!-- Generator: Adobe Illustrator 21.1.0, SVG Export Plug-In . SVG Version: 6.00 Build 0)  -->
<svg version="1.1" id="图层_1" xmlns="http://www.w3.org/2000/svg" xmlns:xlink="http://www.w3.org/1999/xlink" x="0px" y="0px"
	 viewBox="0 0 1080 500" style="enable-background:new 0 0 1080 500;" xml:space="preserve">
<style type="text/css">
	.st0{fill:#FFFFFF;}
</style>
<ellipse transform="matrix(0.9594 -0.2822 0.2822 0.9594 -65.523 111.6653)" class="st0" cx="354.9" cy="283.3" rx="4" ry="4"/>
<ellipse transform="matrix(0.9594 -0.2822 0.2822 0.9594 -21.5888 63.9161)" class="st0" cx="211.1" cy="106.9" rx="6.7" ry="6.7"/>
<ellipse transform="matrix(0.9594 -0.2822 0.2822 0.9594 -44.5794 42.0803)" class="st0" cx="123.8" cy="175.8" rx="2.3" ry="2.3"/>
<g>
	<polygon class="st0" points="211.1,106.9 229.3,128.8 247.4,150.7 283.4,194.8 319.3,239 337.1,261.1 354.9,283.3 336.7,261.4 
		318.7,239.4 282.6,195.4 246.8,151.2 228.9,129.1 	"/>
</g>
<g>
	<path class="st0" d="M211.1,106.9c-7.1,5.9-14.4,11.7-21.6,17.5l-21.8,17.3l-21.9,17.1l-11,8.5l-11.1,8.4l10.8-8.8l10.8-8.7
		l21.8-17.3l21.9-17.1C196.4,118.1,203.7,112.4,211.1,106.9z"/>
</g>
<circle class="st0" cx="99.6" cy="316.1" r="5.7"/>
<circle class="st0" cx="49.8" cy="194.5" r="4"/>
<circle class="st0" cx="63.3" cy="389.1" r="4"/>
<circle class="st0" cx="158" cy="340.5" r="3.3"/>
<circle class="st0" cx="210.3" cy="407.5" r="2.3"/>
<circle class="st0" cx="28.3" cy="343.8" r="2.3"/>
<g>
	<path class="st0" d="M28.3,343.8c3.1,3.6,6.1,7.4,9.1,11.1c3,3.7,5.9,7.5,8.8,11.2c2.9,3.8,5.8,7.6,8.7,11.4l4.3,5.7
		c1.4,1.9,2.8,3.9,4.2,5.8c-1.5-1.8-3-3.7-4.6-5.5l-4.5-5.6c-3-3.7-5.9-7.5-8.8-11.2c-2.9-3.8-5.8-7.6-8.7-11.4
		S31.1,347.7,28.3,343.8z"/>
</g>
<g>
	<path class="st0" d="M63.3,389.1c2.8-6.2,5.8-12.3,8.7-18.4c3-6.1,6-12.2,9-18.3l9.2-18.2l4.7-9.1c1.6-3,3.1-6,4.8-9
		c-1.4,3.1-2.9,6.2-4.3,9.2l-4.4,9.2l-9,18.3c-3.1,6.1-6.1,12.2-9.2,18.2C69.6,377.1,66.5,383.1,63.3,389.1z"/>
</g>
<g>
	<path class="st0" d="M99.6,316.1c9.4,7.5,18.6,15,27.9,22.6l27.7,22.8l27.6,22.9l13.7,11.5l13.7,11.6l-14-11.2L182.3,385
		l-27.7-22.8L127,339.3C117.9,331.5,108.7,323.8,99.6,316.1z"/>
</g>
<g>
	<path class="st0" d="M63.3,389.1c7.8-4.2,15.6-8.4,23.5-12.5l23.6-12.3l23.7-12.1l11.9-6l11.9-5.9l-11.7,6.3l-11.8,6.2l-23.6,12.3
		l-23.7,12C79.2,381.3,71.3,385.2,63.3,389.1z"/>
</g>
<g>
	<path class="st0" d="M49.8,194.5c4.3,10.1,8.6,20.1,12.8,30.2L75.2,255l12.4,30.4l6.1,15.2l6,15.3L93.2,301l-6.4-15.1l-12.6-30.3
		L61.9,225C57.8,214.9,53.8,204.7,49.8,194.5z"/>
</g>
<ellipse transform="matrix(0.9769 -0.2136 0.2136 0.9769 -44.9106 138.9371)" class="st0" cx="620.5" cy="277.3" rx="6.7" ry="6.7"/>
<ellipse transform="matrix(0.9769 -0.2136 0.2136 0.9769 -27.7039 137.7914)" class="st0" cx="623.8" cy="197.1" rx="3.3" ry="3.3"/>
<ellipse transform="matrix(0.9769 -0.2136 0.2136 0.9769 -18.9144 106.7402)" class="st0" cx="484.5" cy="140.9" rx="2.3" ry="2.3"/>
<g>
	<polygon class="st0" points="620.5,277.3 603.4,260.4 586.3,243.5 552.2,209.5 518.2,175.3 501.3,158.1 484.5,140.9 501.7,157.8 
		518.8,174.7 552.9,208.8 586.8,242.9 603.7,260.1 	"/>
</g>
<g>
	<polygon class="st0" points="484.5,140.9 502,147.7 519.5,154.6 554.3,168.5 589.1,182.7 606.5,189.8 623.8,197.1 606.3,190.3 
		588.8,183.4 554,169.5 519.2,155.3 501.8,148.2 	"/>
</g>
<circle class="st0" cx="958.8" cy="225.5" r="4"/>
<circle class="st0" cx="1035.6" cy="188.7" r="2.3"/>
<g>
	<path class="st0" d="M1035.6,188.7c-6.3,3.3-12.7,6.4-19,9.5l-19.1,9.3l-19.2,9.1l-9.7,4.5c-3.2,1.5-6.5,2.9-9.7,4.4
		c3.1-1.6,6.3-3.2,9.5-4.8l9.5-4.7l19.1-9.3l19.2-9.1C1022.6,194.5,1029.1,191.6,1035.6,188.7z"/>
</g>
<ellipse transform="matrix(0.2795 -0.9601 0.9601 0.2795 386.8077 1177.9943)" class="st0" cx="978.3" cy="331.3" rx="5.7" ry="5.7"/>
<ellipse transform="matrix(0.2795 -0.9601 0.9601 0.2795 462.3157 1240.2231)" class="st0" cx="1057.5" cy="312.1" rx="3.3" ry="3.3"/>
<ellipse transform="matrix(0.2795 -0.9601 0.9601 0.2795 417.5378 1074.6079)" class="st0" cx="924.8" cy="259.1" rx="3.3" ry="3.3"/>
<ellipse transform="matrix(0.2795 -0.9601 0.9601 0.2795 384.2602 1294.4104)" class="st0" cx="1054.6" cy="391.2" rx="2.3" ry="2.3"/>
<ellipse transform="matrix(0.2795 -0.9601 0.9601 0.2795 293.9921 1011.2375)" class="st0" cx="820.8" cy="309.7" rx="2.3" ry="2.3"/>
<g>
	<path class="st0" d="M1057.5,311.9c0,6.6-0.2,13.2-0.3,19.8c-0.2,6.6-0.4,13.2-0.6,19.8l-0.8,19.8l-0.5,9.9
		c-0.2,3.3-0.4,6.6-0.6,9.9c0-3.3,0.1-6.6,0.1-9.9l0.2-9.9l0.6-19.8c0.3-6.6,0.5-13.2,0.8-19.8
		C1056.8,325,1057.1,318.5,1057.5,311.9z"/>
</g>
<g>
	<path class="st0" d="M1057.5,311.9c-6.6,1.8-13.1,3.5-19.7,5.2s-13.2,3.3-19.8,4.9l-19.8,4.7l-9.9,2.3c-3.3,0.7-6.6,1.5-10,2.2
		c3.3-0.9,6.6-1.8,9.8-2.6l9.9-2.5l19.8-4.9c6.6-1.6,13.2-3.2,19.8-4.7C1044.3,314.8,1050.9,313.3,1057.5,311.9z"/>
</g>
<g>
	<path class="st0" d="M924.9,259c4.6,5.9,9.2,11.8,13.7,17.8l13.5,17.9l13.3,18.1l6.6,9.1l6.5,9.2l-6.9-8.9l-6.8-8.9l-13.5-17.9
		L938,277.3C933.5,271.2,929.1,265.1,924.9,259z"/>
</g>
<g>
	<path class="st0" d="M924.9,259c-8.6,4.4-17.2,8.7-25.8,13l-26,12.8L847,297.3l-13.1,6.2l-13.1,6.1l12.9-6.5l12.9-6.4l26-12.8
		l26.1-12.5C907.4,267.2,916.1,263,924.9,259z"/>
</g>
<ellipse transform="matrix(0.375 -0.927 0.927 0.375 193.9786 852.5253)" class="st0" cx="729.2" cy="282.4" rx="4" ry="4"/>
<ellipse transform="matrix(0.375 -0.927 0.927 0.375 401.1821 824.3353)" class="st0" cx="811.9" cy="114.6" rx="4" ry="4"/>
<ellipse transform="matrix(0.375 -0.927 0.927 0.375 445.0139 1009.4663)" class="st0" cx="971.2" cy="174.7" rx="3.3" ry="3.3"/>
<ellipse transform="matrix(0.375 -0.927 0.927 0.375 338.2343 897.8003)" class="st0" cx="835" cy="198.1" rx="2.3" ry="2.3"/>
<g>
	<polygon class="st0" points="812,114.6 801.8,135.7 791.6,156.7 771.1,198.7 750.3,240.6 739.9,261.6 729.3,282.4 739.4,261.3 
		749.6,240.3 770.2,198.3 790.9,156.4 801.4,135.5 	"/>
</g>
<g>
	<polygon class="st0" points="812,114.6 831.9,121.9 851.9,129.3 891.7,144.2 931.5,159.3 951.4,167 971.2,174.7 951.2,167.4 
		931.2,160 891.4,145.1 851.6,130 831.8,122.4 	"/>
</g>
<g>
	<path class="st0" d="M812,114.6c2.1,6.9,4.1,13.8,6.1,20.7l5.9,20.8l5.7,20.9l2.8,10.5c0.9,3.5,1.8,7,2.7,10.5
		c-1.1-3.4-2.1-6.9-3.1-10.4l-3-10.4l-5.9-20.8l-5.7-20.9C815.5,128.6,813.7,121.6,812,114.6z"/>
</g>
</svg>
